<svg width="24" height="24" viewBox="0 0 24 24" fill="none" xmlns="http://www.w3.org/2000/svg">
<g clip-path="url(#clip0_9795_47920)">
<path d="M13.5664 7.37397C13.6598 7.37397 13.7494 7.33686 13.8155 7.2708C13.8815 7.20473 13.9187 7.11513 13.9187 7.02171V6.45789C13.9172 6.36546 13.8794 6.27733 13.8135 6.21249C13.7476 6.14766 13.6588 6.11133 13.5664 6.11133C13.474 6.11133 13.3852 6.14766 13.3193 6.21249C13.2534 6.27733 13.2156 6.36546 13.2141 6.45789V7.02171C13.2141 7.06797 13.2232 7.11378 13.2409 7.15652C13.2586 7.19926 13.2846 7.2381 13.3173 7.27081C13.35 7.30352 13.3888 7.32947 13.4316 7.34717C13.4743 7.36487 13.5201 7.37398 13.5664 7.37397ZM10.4822 7.37397C10.5756 7.37397 10.6652 7.33686 10.7312 7.2708C10.7973 7.20473 10.8344 7.11513 10.8344 7.02171V6.45789C10.8329 6.36546 10.7951 6.27733 10.7292 6.21249C10.6633 6.14766 10.5746 6.11133 10.4822 6.11133C10.3897 6.11133 10.301 6.14766 10.2351 6.21249C10.1692 6.27733 10.1314 6.36546 10.1299 6.45789V7.02171C10.1299 7.11513 10.167 7.20473 10.2331 7.2708C10.2991 7.33686 10.3887 7.37397 10.4822 7.37397ZM10.7982 8.86136C10.9067 9.12077 11.285 9.5553 12.0243 9.5553C12.7635 9.5553 13.1418 9.12082 13.2503 8.86136C13.2704 8.81692 13.282 8.76775 13.282 8.71582C13.282 8.62223 13.2448 8.53247 13.1786 8.46629C13.1124 8.40012 13.0227 8.36294 12.9291 8.36294C12.8593 8.36291 12.791 8.38357 12.7329 8.42232C12.6749 8.46106 12.6296 8.51615 12.6028 8.58063C12.5896 8.60814 12.4608 8.84941 12.0242 8.84941C11.5877 8.84941 11.4588 8.6081 11.4456 8.58058C11.4188 8.51611 11.3735 8.46106 11.3155 8.42232C11.2574 8.38357 11.1891 8.36291 11.1193 8.36294C11.0257 8.36294 10.936 8.40012 10.8698 8.46629C10.8036 8.53247 10.7665 8.62223 10.7665 8.71582C10.7666 8.76604 10.7774 8.81566 10.7982 8.86136ZM5.41919 21.9029C5.51262 21.9029 5.60222 21.8658 5.66828 21.7997C5.73434 21.7336 5.77146 21.644 5.77146 21.5506V17.6654C5.77146 17.572 5.73434 17.4824 5.66828 17.4163C5.60222 17.3502 5.51262 17.3131 5.41919 17.3131H4.58875C4.49632 17.3146 4.40819 17.3524 4.34335 17.4183C4.27852 17.4842 4.24219 17.5729 4.24219 17.6654C4.24219 17.7578 4.27852 17.8466 4.34335 17.9125C4.40819 17.9784 4.49632 18.0161 4.58875 18.0176H5.06697V21.5507C5.06697 21.6441 5.10408 21.7337 5.17013 21.7997C5.23619 21.8658 5.32578 21.9029 5.41919 21.9029ZM6.48339 20.4271C6.48339 21.2408 7.14541 21.9028 7.95916 21.9028C8.77291 21.9028 9.43493 21.2408 9.43493 20.4271C9.43493 19.9459 9.20341 19.5179 8.84599 19.2483C9.02303 19.0431 9.13047 18.7761 9.13047 18.4844C9.13047 17.8385 8.605 17.3131 7.95911 17.3131C7.31322 17.3131 6.78775 17.8385 6.78775 18.4844C6.78775 18.7761 6.89519 19.0431 7.07224 19.2483C6.71491 19.5179 6.48339 19.9459 6.48339 20.4271ZM7.95916 21.1984C7.53391 21.1984 7.18792 20.8524 7.18792 20.4271C7.18792 20.0018 7.53391 19.6558 7.95916 19.6558C8.38446 19.6558 8.73044 20.0018 8.73044 20.4271C8.73044 20.8524 8.38446 21.1984 7.95916 21.1984ZM7.49233 18.4845C7.49233 18.227 7.70177 18.0176 7.95916 18.0176C8.21655 18.0176 8.42603 18.2271 8.42603 18.4845C8.42603 18.7419 8.2166 18.9513 7.95916 18.9513C7.70172 18.9513 7.49233 18.7419 7.49233 18.4845ZM18.2204 21.8871C18.2308 21.8871 18.2414 21.887 18.2519 21.8868C19.0552 21.8706 19.7171 21.2298 19.7587 20.4281C19.7808 20.0011 19.6313 19.5956 19.3375 19.2861C19.0478 18.981 18.6406 18.806 18.2203 18.806C18.0792 18.806 17.9593 18.8139 17.8524 18.8289L17.9994 17.942H19.1605C19.2067 17.942 19.2525 17.9329 19.2953 17.9152C19.338 17.8975 19.3768 17.8715 19.4095 17.8388C19.4423 17.8061 19.4682 17.7673 19.4859 17.7245C19.5036 17.6818 19.5127 17.636 19.5127 17.5897C19.5127 17.5435 19.5036 17.4977 19.4859 17.4549C19.4682 17.4122 19.4423 17.3733 19.4095 17.3406C19.3768 17.3079 19.338 17.282 19.2953 17.2643C19.2525 17.2466 19.2067 17.2375 19.1605 17.2375H17.7007C17.6172 17.2375 17.5365 17.2671 17.4729 17.3211C17.4092 17.375 17.3668 17.4498 17.3532 17.5322L17.064 19.2776C17.0535 19.3419 17.061 19.4078 17.0857 19.4681C17.1104 19.5284 17.1513 19.5806 17.2039 19.619C17.2566 19.6575 17.319 19.6806 17.384 19.6858C17.449 19.691 17.5142 19.6781 17.5724 19.6485C17.5754 19.647 17.5873 19.6411 17.6065 19.6325C17.7702 19.5588 17.9013 19.5105 18.2203 19.5105C18.4517 19.5105 18.667 19.6031 18.8265 19.7712C18.986 19.9391 19.0672 20.1595 19.0551 20.3915C19.0326 20.8263 18.6735 21.1736 18.2377 21.1825C17.8128 21.1911 17.4506 20.8819 17.3923 20.4637C17.3869 20.4249 17.3842 20.3857 17.3842 20.3465C17.3827 20.2541 17.3449 20.166 17.279 20.1011C17.2131 20.0363 17.1244 20 17.0319 20C16.9395 20 16.8507 20.0363 16.7848 20.1011C16.7189 20.166 16.6812 20.2541 16.6796 20.3465C16.6796 20.4181 16.6847 20.4902 16.6945 20.5609C16.8008 21.3222 17.4537 21.8872 18.2204 21.8871ZM15.9709 18.5681C15.9709 17.8257 15.3669 17.2217 14.6245 17.2217C13.9825 17.2217 13.4269 17.6784 13.3033 18.3075C13.2944 18.3529 13.2945 18.3996 13.3037 18.445C13.3128 18.4903 13.3308 18.5334 13.3566 18.5718C13.3823 18.6102 13.4154 18.6431 13.454 18.6688C13.4925 18.6944 13.5357 18.7121 13.5811 18.721C13.6265 18.73 13.6732 18.7299 13.7185 18.7207C13.7638 18.7116 13.807 18.6936 13.8454 18.6678C13.8838 18.642 13.9167 18.6089 13.9423 18.5704C13.9679 18.5319 13.9857 18.4887 13.9946 18.4433C14.0535 18.1437 14.3184 17.9262 14.6245 17.9262C14.9784 17.9262 15.2664 18.2141 15.2664 18.5681C15.2664 18.922 14.9784 19.21 14.6245 19.21C14.532 19.2115 14.4439 19.2493 14.3791 19.3152C14.3142 19.3811 14.2779 19.4698 14.2779 19.5623C14.2779 19.6547 14.3142 19.7435 14.3791 19.8094C14.4439 19.8752 14.532 19.913 14.6245 19.9145C14.9784 19.9145 15.2664 20.2025 15.2664 20.5564C15.2664 20.9104 14.9784 21.1983 14.6245 21.1983C14.306 21.1983 14.0327 20.9611 13.9887 20.6463C13.9846 20.6166 13.9825 20.5865 13.9825 20.5564C13.981 20.464 13.9433 20.3759 13.8774 20.311C13.8115 20.2462 13.7227 20.2099 13.6303 20.2099C13.5378 20.2099 13.4491 20.2462 13.3832 20.311C13.3173 20.3759 13.2795 20.464 13.278 20.5564C13.278 20.6191 13.2824 20.6822 13.291 20.7438C13.3832 21.4045 13.9564 21.9028 14.6244 21.9028C15.3668 21.9028 15.9708 21.2988 15.9708 20.5564C15.9708 20.1631 15.8013 19.8086 15.5314 19.5622C15.8013 19.3159 15.9709 18.9615 15.9709 18.5681ZM10.7604 19.21C10.6679 19.2116 10.5798 19.2493 10.515 19.3152C10.4501 19.3811 10.4138 19.4699 10.4138 19.5623C10.4138 19.6548 10.4501 19.7435 10.515 19.8094C10.5798 19.8753 10.6679 19.9131 10.7604 19.9146H11.8962C11.9896 19.9146 12.0792 19.8775 12.1453 19.8114C12.2113 19.7453 12.2485 19.6557 12.2485 19.5623C12.2485 19.4689 12.2113 19.3793 12.1453 19.3132C12.0792 19.2472 11.9896 19.21 11.8962 19.21H10.7604Z" fill="#0A9829"/>
<path d="M20.3521 15.1241H17.8228C17.1992 13.2477 16.1499 12.1066 15.3626 11.4731C14.9722 11.159 14.6084 10.9362 14.3188 10.7835C15.1376 10.17 15.7029 9.23658 15.8299 8.17059C15.8921 8.17828 15.955 8.1825 16.0187 8.1825C16.8554 8.1825 17.536 7.50187 17.536 6.66525C17.536 6.18141 17.3081 5.75011 16.9543 5.47209C17.212 4.70339 17.2557 3.86494 17.074 3.08002C17.053 2.989 16.9966 2.91008 16.9174 2.86061C16.8381 2.81115 16.7425 2.79519 16.6515 2.81625C16.5605 2.83731 16.4815 2.89366 16.4321 2.97291C16.3826 3.05216 16.3666 3.14781 16.3877 3.23883C16.5346 3.87342 16.5056 4.55011 16.3097 5.17631C16.2139 5.15754 16.1164 5.14806 16.0187 5.148C15.8464 5.148 15.6792 5.1765 15.5194 5.23242C14.532 4.70053 13.4581 3.18548 13.447 3.16959C13.4194 3.13026 13.384 3.09699 13.343 3.07185C13.302 3.04671 13.2563 3.03023 13.2087 3.02341C13.1611 3.0166 13.1126 3.0196 13.0662 3.03222C13.0199 3.04485 12.9765 3.06684 12.939 3.09684C12.9151 3.11592 10.5631 4.97864 8.5952 5.25727C8.41578 5.1848 8.22405 5.14769 8.03055 5.14795C7.92245 5.14795 7.81698 5.15953 7.71522 5.18114C7.59859 3.89812 7.86798 2.86608 8.51884 2.10914C9.40933 1.07348 10.9137 0.704484 12.0246 0.704484C13.1209 0.704484 13.7278 1.31292 13.7515 1.3373C13.8325 1.42223 13.952 1.46095 14.0678 1.44122C14.0758 1.43986 14.876 1.30973 15.5438 1.80056C15.6565 1.88339 15.7635 1.9867 15.8619 2.10764C15.9214 2.17822 16.0063 2.2226 16.0982 2.23124C16.1901 2.23987 16.2818 2.21207 16.3534 2.15382C16.4251 2.09556 16.471 2.01151 16.4813 1.91975C16.4916 1.82799 16.4654 1.73585 16.4085 1.66317C16.2724 1.49588 16.1219 1.35113 15.9611 1.23291C15.257 0.715406 14.4722 0.701531 14.1249 0.726891C13.839 0.489844 13.1164 0 12.0247 0C11.4097 0 9.301 0.118969 7.9847 1.64986C7.15731 2.61211 6.84119 3.91172 7.04308 5.5148C6.71912 5.79328 6.51334 6.20555 6.51334 6.66525C6.51334 7.50187 7.19397 8.1825 8.03059 8.1825C8.09425 8.1825 8.1572 8.17828 8.21936 8.17059C8.34644 9.23648 8.91161 10.1698 9.73038 10.7834C9.31558 11.0019 8.74862 11.3647 8.16869 11.9341C8.10294 11.9997 8.06579 12.0887 8.06533 12.1816C8.06487 12.2745 8.10114 12.3639 8.16623 12.4302C8.23133 12.4965 8.31999 12.5344 8.4129 12.5356C8.50581 12.5368 8.59544 12.5013 8.66228 12.4368C9.30377 11.807 9.92931 11.4602 10.2853 11.2956L10.8891 12.8256L10.4694 15.1241H6.97183C7.19069 14.5212 7.47077 13.9654 7.80733 13.4667C7.83321 13.4284 7.85129 13.3853 7.86053 13.34C7.86976 13.2947 7.86998 13.248 7.86117 13.2026C7.85235 13.1571 7.83468 13.1139 7.80915 13.0753C7.78363 13.0368 7.75075 13.0036 7.71241 12.9777C7.67407 12.9518 7.63101 12.9338 7.58569 12.9245C7.54036 12.9153 7.49366 12.9151 7.44826 12.9239C7.40285 12.9327 7.35962 12.9504 7.32104 12.9759C7.28246 13.0014 7.24928 13.0343 7.22341 13.0726C6.81002 13.6851 6.47598 14.3745 6.22708 15.1241H3.646C2.67484 15.1241 1.88477 15.9142 1.88477 16.8853V22.2387C1.88477 23.2098 2.67484 23.9999 3.646 23.9999H15.8053C15.8978 23.9984 15.9859 23.9606 16.0507 23.8947C16.1156 23.8288 16.1519 23.7401 16.1519 23.6476C16.1519 23.5552 16.1156 23.4665 16.0507 23.4006C15.9859 23.3347 15.8978 23.2969 15.8053 23.2954H3.646C3.0633 23.2954 2.58925 22.8213 2.58925 22.2386V16.8854C2.58925 16.3027 3.0633 15.8287 3.646 15.8287H20.3521C20.9348 15.8287 21.4088 16.3027 21.4088 16.8854V22.2388C21.4088 22.8215 20.9348 23.2955 20.3521 23.2955H17.2143C17.1219 23.297 17.0337 23.3348 16.9689 23.4007C16.9041 23.4666 16.8677 23.5553 16.8677 23.6478C16.8677 23.7402 16.9041 23.829 16.9689 23.8949C17.0337 23.9608 17.1219 23.9985 17.2143 24H20.3521C21.3232 24 22.1133 23.21 22.1133 22.2388V16.8854C22.1133 15.9142 21.3232 15.1241 20.3521 15.1241ZM12.556 12.4377H11.4933L11.0971 11.4336C11.7061 11.5857 12.3432 11.5857 12.9522 11.4336L12.556 12.4377ZM16.8315 6.66525C16.8315 7.11342 16.4669 7.47802 16.0187 7.47802C15.9647 7.47775 15.9109 7.47211 15.858 7.46119V5.86931C15.9109 5.85839 15.9647 5.85275 16.0187 5.85248C16.4669 5.85253 16.8315 6.21712 16.8315 6.66525ZM7.21783 6.66525C7.21783 6.21708 7.58242 5.85248 8.03059 5.85248C8.0853 5.85248 8.13878 5.85877 8.19128 5.86931V7.46119C8.13841 7.47212 8.08458 7.47775 8.03059 7.47802C7.58242 7.47802 7.21783 7.11342 7.21783 6.66525ZM8.89577 7.71431V5.92191C9.75034 5.76394 10.733 5.35584 11.8225 4.70597C12.2572 4.44633 12.6796 4.16654 13.0882 3.86752C13.4721 4.36495 14.306 5.36212 15.1535 5.83547V7.71431C15.1535 9.43959 13.7499 10.8432 12.0247 10.8432C10.2993 10.8432 8.89577 9.43959 8.89577 7.71431ZM11.1855 15.1241L11.5473 13.1422H12.502L12.8639 15.1241H11.1855ZM13.5799 15.1241L13.1603 12.8257L13.7642 11.2951C14.4568 11.6151 16.172 12.6299 17.0776 15.1241H13.5799Z" fill="#0A9829"/>
</g>
<defs>
<clipPath id="clip0_9795_47920">
<rect width="24" height="24" fill="white"/>
</clipPath>
</defs>
</svg>
