<svg width="60" height="60" viewBox="0 0 60 60" fill="none" xmlns="http://www.w3.org/2000/svg">
<rect x="0.5" y="0.5" width="59" height="59" rx="7.5" stroke="#F0F0F0"/>
<circle cx="24" cy="36" r="9" fill="#D9D9D9"/>
<path d="M20.2594 32.2727C20.0897 31.5426 20 30.7818 20 30C20 29.2182 20.0897 28.4574 20.2594 27.7273M28.1818 20.1649C28.7714 20.0566 29.3791 20 30 20C35.5228 20 40 24.4772 40 30C40 35.5228 35.5228 40 30 40C29.3791 40 28.7714 39.9434 28.1818 39.8351M25 21.3378C23.636 22.1268 22.4757 23.2288 21.6172 24.5455M21.6172 35.4545C22.4757 36.7712 23.636 37.8732 25 38.6622M33 28L29.0658 31.9342C29.0287 31.9713 28.9693 31.9734 28.9296 31.939L27 30.2672" stroke="#222222" stroke-width="2" stroke-linecap="round"/>
</svg>
