<svg width="40" height="40" viewBox="0 0 40 40" fill="none" xmlns="http://www.w3.org/2000/svg">
<circle cx="20" cy="20" r="19.5" fill="#FAFAFA" stroke="#0A9829"/>
<g clip-path="url(#clip0_9795_47942)">
<path fill-rule="evenodd" clip-rule="evenodd" d="M27 11C27.7956 11 28.5587 11.3161 29.1213 11.8787C29.6839 12.4413 30 13.2044 30 14V24C30 24.7956 29.6839 25.5587 29.1213 26.1213C28.5587 26.6839 27.7956 27 27 27H15.333L12 29.5C11.176 30.118 10 29.53 10 28.5V14C10 13.2044 10.3161 12.4413 10.8787 11.8787C11.4413 11.3161 12.2044 11 13 11H27ZM19 20H16C15.7348 20 15.4804 20.1054 15.2929 20.2929C15.1054 20.4804 15 20.7348 15 21C15 21.2652 15.1054 21.5196 15.2929 21.7071C15.4804 21.8946 15.7348 22 16 22H19C19.2652 22 19.5196 21.8946 19.7071 21.7071C19.8946 21.5196 20 21.2652 20 21C20 20.7348 19.8946 20.4804 19.7071 20.2929C19.5196 20.1054 19.2652 20 19 20ZM24 16H16C15.7451 16.0003 15.5 16.0979 15.3146 16.2728C15.1293 16.4478 15.0178 16.687 15.0028 16.9414C14.9879 17.1958 15.0707 17.4464 15.2343 17.6418C15.3979 17.8373 15.6299 17.9629 15.883 17.993L16 18H24C24.2549 17.9997 24.5 17.9021 24.6854 17.7272C24.8707 17.5522 24.9822 17.313 24.9972 17.0586C25.0121 16.8042 24.9293 16.5536 24.7657 16.3582C24.6021 16.1627 24.3701 16.0371 24.117 16.007L24 16Z" fill="#0A9829"/>
</g>
<defs>
<clipPath id="clip0_9795_47942">
<rect width="24" height="24" fill="white" transform="translate(8 8)"/>
</clipPath>
</defs>
</svg>
